<svg xmlns="http://www.w3.org/2000/svg" width="60" height="60" viewBox="0 0 60 60">
  <metadata><?xpacket begin="﻿" id="W5M0MpCehiHzreSzNTczkc9d"?>
<x:xmpmeta xmlns:x="adobe:ns:meta/" x:xmptk="Adobe XMP Core 5.6-c138 79.159824, 2016/09/14-01:09:01        ">
   <rdf:RDF xmlns:rdf="http://www.w3.org/1999/02/22-rdf-syntax-ns#">
      <rdf:Description rdf:about=""/>
   </rdf:RDF>
</x:xmpmeta>
                                                                                                    
                                                                                                    
                                                                                                    
                                                                                                    
                                                                                                    
                                                                                                    
                                                                                                    
                                                                                                    
                                                                                                    
                                                                                                    
                                                                                                    
                                                                                                    
                                                                                                    
                                                                                                    
                                                                                                    
                                                                                                    
                                                                                                    
                                                                                                    
                                                                                                    
                                                                                                    
                           
<?xpacket end="w"?></metadata>
<defs>
    <style>
      .cls-1 {
        fill: #fff;
        fill-rule: evenodd;
      }
    </style>
  </defs>
  <path id="形状_1" data-name="形状 1" class="cls-1" d="M394.4,27.118l-6.322,6.323c0.027,0.021.052,0.043,0.079,0.064l-13,12.124L362.007,33.375l0.084-.067-6.327-6.328A30,30,0,0,0,350.8,67.731l6.4-6.4a21.092,21.092,0,0,1-.892-21.132l11.608,10.552,7.236,15.98,7.236-15.98,11.4-10.366a21.106,21.106,0,0,1-.871,20.761l6.407,6.408A30,30,0,0,0,394.4,27.118ZM375,71.106a21.064,21.064,0,0,1-16.56-8.029L352.118,69.4a30,30,0,0,0,45.9-.163l-6.328-6.328A21.067,21.067,0,0,1,375,71.106Zm0-42.211A21,21,0,0,1,386.333,32.2l6.4-6.4a30,30,0,0,0-35.289-.127l6.408,6.407A21,21,0,0,1,375,28.895Z" transform="translate(-345 -20)"/>
</svg>
