<svg xmlns="http://www.w3.org/2000/svg" width="60" height="60" viewBox="0 0 60 60">
  <metadata><?xpacket begin="﻿" id="W5M0MpCehiHzreSzNTczkc9d"?>
<x:xmpmeta xmlns:x="adobe:ns:meta/" x:xmptk="Adobe XMP Core 5.6-c138 79.159824, 2016/09/14-01:09:01        ">
   <rdf:RDF xmlns:rdf="http://www.w3.org/1999/02/22-rdf-syntax-ns#">
      <rdf:Description rdf:about=""/>
   </rdf:RDF>
</x:xmpmeta>
                                                                                                    
                                                                                                    
                                                                                                    
                                                                                                    
                                                                                                    
                                                                                                    
                                                                                                    
                                                                                                    
                                                                                                    
                                                                                                    
                                                                                                    
                                                                                                    
                                                                                                    
                                                                                                    
                                                                                                    
                                                                                                    
                                                                                                    
                                                                                                    
                                                                                                    
                                                                                                    
                           
<?xpacket end="w"?></metadata>
<defs>
    <style>
      .cls-1 {
        fill: #b16d0b;
        fill-rule: evenodd;
      }
    </style>
  </defs>
  <path id="形状_7" data-name="形状 7" class="cls-1" d="M14.034,22.246L9,37.755H12.18L13.191,34.2h4.995l1.028,3.554h3.194L17.475,22.246H14.034Zm-0.2,9.4,1.57-5.417a6.4,6.4,0,0,0,.24-1.312h0.079a6.574,6.574,0,0,0,.214,1.351l1.561,5.376H13.831Zm9.031-6.7h3.912v12.8h2.936V24.948H33.63v-2.7H22.862v2.7Zm23.978-2.7L43.866,31.6q-0.293.931-.569,2.2H43.236a12.311,12.311,0,0,0-.507-2.182l-2.963-9.371H35.509V37.756h2.644v-8.77q0-1.962-.115-3.914h0.081q0.31,1.711.435,2.092l3.434,10.592H44.32l3.389-10.693a19.071,19.071,0,0,0,.426-1.993h0.071q-0.115,1.973-.114,3.274v9.412h2.891V22.248H46.84ZM30,0A30,30,0,1,0,60,30,30,30,0,0,0,30,0Zm0.011,54.261a24.25,24.25,0,1,1,24.25-24.25A24.25,24.25,0,0,1,30.011,54.261Z"/>
</svg>
