<?xml version="1.0" encoding="utf-8"?>
<!-- Generator: Adobe Illustrator 21.0.2, SVG Export Plug-In . SVG Version: 6.00 Build 0)  -->
<svg version="1.1" id="图层_1" xmlns="http://www.w3.org/2000/svg" xmlns:xlink="http://www.w3.org/1999/xlink" x="0px" y="0px"
	 viewBox="0 0 60 60" style="enable-background:new 0 0 60 60;" xml:space="preserve">
<style type="text/css">
	.st0{fill:#1AAD19;}
</style>
<path id="形状_4" class="st0" d="M21.8,37c-1,0.5-2.1,0.1-2.6-0.8L19,35.9l-5.5-12c-0.1-0.1-0.1-0.3-0.1-0.4c0-0.6,0.4-1,1-1
	c0.2,0,0.4,0.1,0.6,0.2l6.4,4.6c0.8,0.5,1.8,0.6,2.7,0.3l30.3-13.5C49.1,7.7,40.1,3.5,30,3.5c-16.6,0-30,11.2-30,25
	c0,7.5,4,14.3,10.4,18.9c0.5,0.4,0.8,1,0.8,1.6c0,0.2,0,0.4-0.1,0.6c-0.5,1.9-1.3,4.9-1.4,5c-0.1,0.2-0.1,0.5-0.2,0.7
	c0,0.6,0.4,1,1,1c0.2,0,0.4-0.1,0.6-0.2l6.6-3.8c0.5-0.3,1-0.5,1.6-0.5c0.3,0,0.6,0,0.9,0.1c3.2,0.9,6.5,1.4,9.8,1.4
	c16.6,0,30-11.2,30-25c0-4.1-1.2-8.1-3.4-11.6L22,36.9L21.8,37L21.8,37L21.8,37z"/>
</svg>
