<?xml version="1.0" encoding="utf-8"?>
<!-- Generator: Adobe Illustrator 21.0.2, SVG Export Plug-In . SVG Version: 6.00 Build 0)  -->
<svg version="1.1" id="图层_1" xmlns="http://www.w3.org/2000/svg" xmlns:xlink="http://www.w3.org/1999/xlink" x="0px" y="0px"
	 viewBox="0 0 60 60" style="enable-background:new 0 0 60 60;" xml:space="preserve">
<style type="text/css">
	.st0{fill:#0B7DB1;}
</style>
<path id="形状_6" class="st0" d="M56.3,7.5H3.7C1.7,7.5,0,9.2,0,11.2V15h60v-3.8C60,9.2,58.3,7.5,56.3,7.5z M0,46.5
	c0,3.3,2.7,6,6,6l0,0h48c3.3,0,6-2.7,6-6v-24H0V46.5z M27,30h3v3h-3V30z M7.5,30h15v3h-15V30z M7.5,42H30v3H7.5L7.5,42L7.5,42z"/>
</svg>
