<svg xmlns="http://www.w3.org/2000/svg" width="60" height="60" viewBox="0 0 60 60">
  <metadata><?xpacket begin="﻿" id="W5M0MpCehiHzreSzNTczkc9d"?>
<x:xmpmeta xmlns:x="adobe:ns:meta/" x:xmptk="Adobe XMP Core 5.6-c138 79.159824, 2016/09/14-01:09:01        ">
   <rdf:RDF xmlns:rdf="http://www.w3.org/1999/02/22-rdf-syntax-ns#">
      <rdf:Description rdf:about=""/>
   </rdf:RDF>
</x:xmpmeta>
                                                                                                    
                                                                                                    
                                                                                                    
                                                                                                    
                                                                                                    
                                                                                                    
                                                                                                    
                                                                                                    
                                                                                                    
                                                                                                    
                                                                                                    
                                                                                                    
                                                                                                    
                                                                                                    
                                                                                                    
                                                                                                    
                                                                                                    
                                                                                                    
                                                                                                    
                                                                                                    
                           
<?xpacket end="w"?></metadata>
<defs>
    <style>
      .cls-1 {
        fill: #009fe8;
        fill-rule: evenodd;
      }
    </style>
  </defs>
  <path id="形状_5" data-name="形状 5" class="cls-1" d="M60.013,40.645L59.675,11.326A11.472,11.472,0,0,0,48.063.009l-36.718.425A11.462,11.462,0,0,0,.011,12.019L0.436,48.673a11.469,11.469,0,0,0,11.6,11.32l36.721-.431A11.485,11.485,0,0,0,59.946,50c-3.06-1.28-16.313-6.808-23.22-10C31.572,46.38,26.143,50.239,17.89,50.332S4.069,45.419,4.661,39.2C5.047,35.126,7.772,28.43,19.948,29.43c6.415,0.524,9.367,1.684,14.611,3.347A41.136,41.136,0,0,0,37.8,24.641l-23.181.268-0.027-2.292,11.47-.133L26.01,18.366l-13.99.163L11.991,16l13.993-.163L25.914,9.9a1.108,1.108,0,0,1,1.144-.943l5.733-.066,0.084,6.871,14.913-.175,0.03,2.524-14.913.175,0.048,4.118,12.164-.142a47.052,47.052,0,0,1-4.792,12.426c3.546,1.235,19.687,5.955,19.687,5.955h0ZM16.931,46.416c-8.718.1-10.16-5.38-9.726-7.681s2.921-5.3,7.77-5.356c5.571-.063,10.577,1.3,16.6,4.139-4.14,5.518-9.273,8.838-14.644,8.9h0Z"/>
</svg>
